<svg xmlns="http://www.w3.org/2000/svg" version="1.1" xmlns:xlink="http://www.w3.org/1999/xlink" xmlns:svgjs="http://svgjs.dev/svgjs" viewBox="0 0 800 800"><defs><linearGradient x1="50%" y1="0%" x2="50%" y2="100%" id="nnneon-grad"><stop stop-color="hsl(119, 100%, 54%)" stop-opacity="1" offset="0%"></stop><stop stop-color="hsl(0, 0%, 100%)" stop-opacity="1" offset="100%"></stop></linearGradient><filter id="nnneon-filter" x="-100%" y="-100%" width="400%" height="400%" filterUnits="objectBoundingBox" primitiveUnits="userSpaceOnUse" color-interpolation-filters="sRGB">
	<feGaussianBlur stdDeviation="17 8" x="0%" y="0%" width="100%" height="100%" in="SourceGraphic" edgeMode="none" result="blur"></feGaussianBlur></filter><filter id="nnneon-filter2" x="-100%" y="-100%" width="400%" height="400%" filterUnits="objectBoundingBox" primitiveUnits="userSpaceOnUse" color-interpolation-filters="sRGB">
	<feGaussianBlur stdDeviation="10 17" x="0%" y="0%" width="100%" height="100%" in="SourceGraphic" edgeMode="none" result="blur"></feGaussianBlur></filter></defs><g stroke-width="44" stroke="url(#nnneon-grad)" fill="none"><path d="M400.0000305175781 -4.1446533203125L750.0000528823523 197.9276591362559V602.0722840493927L400.0000305175781 804.1445965059611L50.00000815280396 602.0722840493927V197.9276591362559L400.0000305175781 -4.1446533203125Z " filter="url(#nnneon-filter)"></path><path d="M412.0000305175781 -4.1446533203125L762.0000528823523 197.9276591362559V602.0722840493927L412.0000305175781 804.1445965059611L62.00000815280396 602.0722840493927V197.9276591362559L412.0000305175781 -4.1446533203125Z " filter="url(#nnneon-filter2)" opacity="0.25"></path><path d="M388.0000305175781 -4.1446533203125L738.0000528823523 197.9276591362559V602.0722840493927L388.0000305175781 804.1445965059611L38.00000815280396 602.0722840493927V197.9276591362559L388.0000305175781 -4.1446533203125Z " filter="url(#nnneon-filter2)" opacity="0.25"></path><path d="M400.0000305175781 -4.1446533203125L750.0000528823523 197.9276591362559V602.0722840493927L400.0000305175781 804.1445965059611L50.00000815280396 602.0722840493927V197.9276591362559L400.0000305175781 -4.1446533203125Z "></path></g></svg>