<svg xmlns="http://www.w3.org/2000/svg" version="1.1" xmlns:xlink="http://www.w3.org/1999/xlink" xmlns:svgjs="http://svgjs.dev/svgjs" viewBox="0 0 800 800"><defs><linearGradient x1="50%" y1="0%" x2="50%" y2="100%" id="nnneon-grad"><stop stop-color="hsl(0, 100%, 50%)" stop-opacity="1" offset="0%"></stop><stop stop-color="hsl(245, 100%, 50%)" stop-opacity="1" offset="100%"></stop></linearGradient><filter id="nnneon-filter" x="-100%" y="-100%" width="400%" height="400%" filterUnits="objectBoundingBox" primitiveUnits="userSpaceOnUse" color-interpolation-filters="sRGB">
	<feGaussianBlur stdDeviation="17 8" x="0%" y="0%" width="100%" height="100%" in="SourceGraphic" edgeMode="none" result="blur"></feGaussianBlur></filter><filter id="nnneon-filter2" x="-100%" y="-100%" width="400%" height="400%" filterUnits="objectBoundingBox" primitiveUnits="userSpaceOnUse" color-interpolation-filters="sRGB">
	<feGaussianBlur stdDeviation="10 17" x="0%" y="0%" width="100%" height="100%" in="SourceGraphic" edgeMode="none" result="blur"></feGaussianBlur></filter></defs><g stroke-width="21" stroke="url(#nnneon-grad)" fill="none"><path d="M373.05705552336894 11.409548054854042C389.7293684497856 1.7855173869225212 410.2706925853706 1.7855173869225212 426.9430055117873 11.412242352353474L723.0570778881431 182.37350158310852C739.7293908145598 191.99753225104 750.0000528823523 209.78797863971636 750.0000528823523 229.03873427307883V570.9612527345889C750.0000528823523 590.2120083679514 739.7293908145598 608.0024547566278 723.0570778881431 617.6291797220587L426.9430055117873 788.5904389528137C410.2706925853706 798.2144696207451 389.7293684497856 798.2144696207451 373.05705552336894 788.5877446553143L76.94298314701308 617.6264854245592C60.270670220596514 608.0024547566278 50.00000815280396 590.2120083679514 50.00000815280396 570.9612527345889V229.03873427307883C50.00000815280396 209.78797863971636 60.270670220596514 191.99753225104 76.94298314701308 182.37080728560915L373.05705552336894 11.409548054854042Z " filter="url(#nnneon-filter)"></path><path d="M385.05705552336894 11.409548054854042C401.7293684497856 1.7855173869225212 422.2706925853706 1.7855173869225212 438.9430055117873 11.412242352353474L735.0570778881431 182.37350158310852C751.7293908145598 191.99753225104 762.0000528823523 209.78797863971636 762.0000528823523 229.03873427307883V570.9612527345889C762.0000528823523 590.2120083679514 751.7293908145598 608.0024547566278 735.0570778881431 617.6291797220587L438.9430055117873 788.5904389528137C422.2706925853706 798.2144696207451 401.7293684497856 798.2144696207451 385.05705552336894 788.5877446553143L88.94298314701308 617.6264854245592C72.27067022059651 608.0024547566278 62.00000815280396 590.2120083679514 62.00000815280396 570.9612527345889V229.03873427307883C62.00000815280396 209.78797863971636 72.27067022059651 191.99753225104 88.94298314701308 182.37080728560915L385.05705552336894 11.409548054854042Z " filter="url(#nnneon-filter2)" opacity="0.25"></path><path d="M361.05705552336894 11.409548054854042C377.7293684497856 1.7855173869225212 398.2706925853706 1.7855173869225212 414.9430055117873 11.412242352353474L711.0570778881431 182.37350158310852C727.7293908145598 191.99753225104 738.0000528823523 209.78797863971636 738.0000528823523 229.03873427307883V570.9612527345889C738.0000528823523 590.2120083679514 727.7293908145598 608.0024547566278 711.0570778881431 617.6291797220587L414.9430055117873 788.5904389528137C398.2706925853706 798.2144696207451 377.7293684497856 798.2144696207451 361.05705552336894 788.5877446553143L64.94298314701308 617.6264854245592C48.270670220596514 608.0024547566278 38.00000815280396 590.2120083679514 38.00000815280396 570.9612527345889V229.03873427307883C38.00000815280396 209.78797863971636 48.270670220596514 191.99753225104 64.94298314701308 182.37080728560915L361.05705552336894 11.409548054854042Z " filter="url(#nnneon-filter2)" opacity="0.25"></path><path d="M373.05705552336894 11.409548054854042C389.7293684497856 1.7855173869225212 410.2706925853706 1.7855173869225212 426.9430055117873 11.412242352353474L723.0570778881431 182.37350158310852C739.7293908145598 191.99753225104 750.0000528823523 209.78797863971636 750.0000528823523 229.03873427307883V570.9612527345889C750.0000528823523 590.2120083679514 739.7293908145598 608.0024547566278 723.0570778881431 617.6291797220587L426.9430055117873 788.5904389528137C410.2706925853706 798.2144696207451 389.7293684497856 798.2144696207451 373.05705552336894 788.5877446553143L76.94298314701308 617.6264854245592C60.270670220596514 608.0024547566278 50.00000815280396 590.2120083679514 50.00000815280396 570.9612527345889V229.03873427307883C50.00000815280396 209.78797863971636 60.270670220596514 191.99753225104 76.94298314701308 182.37080728560915L373.05705552336894 11.409548054854042Z "></path></g></svg>